<svg width="124" height="32" viewBox="0 0 124 32" fill="none" xmlns="http://www.w3.org/2000/svg">
<path fill-rule="evenodd" clip-rule="evenodd" d="M16 0C7.16344 0 0 7.16344 0 16C0 20.7336 2.05556 24.987 5.32274 27.9164L2.33761 30.2066C1.57952 30.7882 1.99081 32 2.9463 32H15.0391C15.1095 32 15.1765 31.9939 15.2401 31.9823C15.4919 31.994 15.7453 32 16 32C24.8366 32 32 24.8366 32 16C32 7.16344 24.8366 0 16 0Z" fill="#D2D5F9"/>
<path d="M9 18C10.1046 18 11 17.1046 11 16C11 14.8954 10.1046 14 9 14C7.89543 14 7 14.8954 7 16C7 17.1046 7.89543 18 9 18Z" fill="#002DE3"/>
<path d="M16 18C17.1046 18 18 17.1046 18 16C18 14.8954 17.1046 14 16 14C14.8954 14 14 14.8954 14 16C14 17.1046 14.8954 18 16 18Z" fill="#002DE3"/>
<path d="M23 18C24.1046 18 25 17.1046 25 16C25 14.8954 24.1046 14 23 14C21.8954 14 21 14.8954 21 16C21 17.1046 21.8954 18 23 18Z" fill="#002DE3"/>
<path d="M49.72 25.216C47.992 25.216 46.4799 24.856 45.1839 24.136C43.9039 23.4 42.9199 22.376 42.2319 21.064C41.5439 19.736 41.2 18.192 41.2 16.432C41.2 14.688 41.5439 13.16 42.2319 11.848C42.9199 10.52 43.9039 9.496 45.1839 8.776C46.4799 8.056 47.992 7.696 49.72 7.696C50.856 7.696 51.9359 7.872 52.9599 8.224C53.9999 8.56 54.848 9.04 55.504 9.664L54.3279 12.352C53.5599 11.776 52.8079 11.36 52.0719 11.104C51.3519 10.832 50.592 10.696 49.792 10.696C48.2559 10.696 47.08 11.184 46.264 12.16C45.448 13.136 45.04 14.56 45.04 16.432C45.04 18.32 45.448 19.76 46.264 20.752C47.08 21.728 48.2559 22.216 49.792 22.216C50.592 22.216 51.3519 22.088 52.0719 21.832C52.8079 21.56 53.5599 21.136 54.3279 20.56L55.504 23.248C54.848 23.872 53.9999 24.36 52.9599 24.712C51.9359 25.048 50.856 25.216 49.72 25.216ZM65.4057 12.52C68.2857 12.52 69.7257 14.224 69.7257 17.632V25H66.1017V17.8C66.1017 16.952 65.9416 16.336 65.6216 15.952C65.3176 15.552 64.8297 15.352 64.1576 15.352C63.3577 15.352 62.7177 15.608 62.2377 16.12C61.7577 16.632 61.5177 17.32 61.5177 18.184V25H57.8937V7.336H61.5177V14.488C61.9496 13.848 62.5016 13.36 63.1736 13.024C63.8456 12.688 64.5897 12.52 65.4057 12.52ZM84.8043 12.832V25H81.2284V23.2C80.8604 23.824 80.3404 24.312 79.6684 24.664C78.9964 25.016 78.2363 25.192 77.3883 25.192C76.3323 25.192 75.3963 24.936 74.5803 24.424C73.7803 23.912 73.1484 23.184 72.6844 22.24C72.2364 21.28 72.0123 20.176 72.0123 18.928C72.0123 17.68 72.2364 16.568 72.6844 15.592C73.1484 14.616 73.7884 13.864 74.6044 13.336C75.4203 12.792 76.3483 12.52 77.3883 12.52C78.2363 12.52 78.9964 12.704 79.6684 13.072C80.3404 13.44 80.8604 13.936 81.2284 14.56V12.832H84.8043ZM78.4443 22.432C79.3403 22.432 80.0284 22.128 80.5084 21.52C80.9883 20.912 81.2284 20.032 81.2284 18.88C81.2284 17.728 80.9883 16.848 80.5084 16.24C80.0284 15.616 79.3403 15.304 78.4443 15.304C77.5483 15.304 76.8523 15.624 76.3563 16.264C75.8604 16.904 75.6123 17.792 75.6123 18.928C75.6123 20.064 75.8523 20.936 76.3323 21.544C76.8283 22.136 77.5323 22.432 78.4443 22.432ZM92.2895 15.544V20.272C92.2895 20.944 92.4655 21.44 92.8175 21.76C93.1695 22.064 93.6255 22.216 94.1856 22.216C94.5376 22.216 94.9375 22.16 95.3855 22.048V24.856C94.8095 25.08 94.1135 25.192 93.2976 25.192C91.7935 25.192 90.6415 24.768 89.8415 23.92C89.0575 23.072 88.6656 21.88 88.6656 20.344V15.544H86.3616V12.832H88.6656V9.976L92.2895 8.8V12.832H95.3855V15.544H92.2895ZM108.165 19.216H100.149C100.213 20.352 100.509 21.184 101.037 21.712C101.565 22.224 102.349 22.48 103.389 22.48C104.013 22.48 104.637 22.376 105.261 22.168C105.885 21.96 106.461 21.656 106.989 21.256L107.949 23.704C107.373 24.168 106.653 24.536 105.789 24.808C104.941 25.064 104.085 25.192 103.221 25.192C101.173 25.192 99.5653 24.632 98.3973 23.512C97.2293 22.376 96.6453 20.832 96.6453 18.88C96.6453 17.648 96.8932 16.552 97.3892 15.592C97.9012 14.616 98.6133 13.864 99.5252 13.336C100.437 12.792 101.469 12.52 102.621 12.52C104.333 12.52 105.685 13.08 106.677 14.2C107.669 15.304 108.165 16.8 108.165 18.688V19.216ZM102.717 15.064C102.029 15.064 101.469 15.264 101.037 15.664C100.621 16.064 100.349 16.648 100.221 17.416H105.045C104.853 15.848 104.077 15.064 102.717 15.064ZM116.249 25.192C114.953 25.192 113.817 24.936 112.841 24.424C111.881 23.912 111.137 23.176 110.609 22.216C110.097 21.256 109.841 20.136 109.841 18.856C109.841 17.576 110.097 16.456 110.609 15.496C111.137 14.536 111.881 13.8 112.841 13.288C113.817 12.776 114.953 12.52 116.249 12.52C117.529 12.52 118.649 12.776 119.609 13.288C120.569 13.8 121.305 14.536 121.817 15.496C122.345 16.456 122.609 17.576 122.609 18.856C122.609 20.136 122.345 21.256 121.817 22.216C121.305 23.176 120.569 23.912 119.609 24.424C118.649 24.936 117.529 25.192 116.249 25.192ZM116.249 22.432C117.145 22.432 117.825 22.136 118.289 21.544C118.769 20.952 119.009 20.056 119.009 18.856C119.009 17.672 118.769 16.784 118.289 16.192C117.825 15.584 117.145 15.28 116.249 15.28C115.337 15.28 114.641 15.584 114.161 16.192C113.681 16.784 113.441 17.672 113.441 18.856C113.441 21.24 114.377 22.432 116.249 22.432Z" fill="black"/>
</svg>
